<svg width="24" height="20" viewBox="0 0 24 20" fill="none" xmlns="http://www.w3.org/2000/svg">
<g filter="url(#filter0_d_15_51)">
<path d="M17.5 0.5C15.55 0.5 13.45 0.9 12 2C10.55 0.9 8.45 0.5 6.5 0.5C5.05 0.5 3.51 0.72 2.22 1.29C1.49 1.62 1 2.33 1 3.14V14.42C1 15.72 2.22 16.68 3.48 16.36C4.46 16.11 5.5 16 6.5 16C8.06 16 9.72 16.26 11.06 16.92C11.66 17.22 12.34 17.22 12.93 16.92C14.27 16.25 15.93 16 17.49 16C18.49 16 19.53 16.11 20.51 16.36C21.77 16.69 22.99 15.73 22.99 14.42V3.14C22.99 2.33 22.5 1.62 21.77 1.29C20.49 0.72 18.95 0.5 17.5 0.5ZM21 13.23C21 13.86 20.42 14.32 19.8 14.21C19.05 14.07 18.27 14.01 17.5 14.01C15.8 14.01 13.35 14.66 12 15.51V4C13.35 3.15 15.8 2.5 17.5 2.5C18.42 2.5 19.33 2.59 20.2 2.78C20.66 2.88 21 3.29 21 3.76V13.23Z" fill="url(#paint0_linear_15_51)"/>
<path d="M13.98 7.00998C13.66 7.00998 13.37 6.80998 13.27 6.48998C13.14 6.09998 13.36 5.66998 13.75 5.54998C15.29 5.04998 17.28 4.88998 19.11 5.09998C19.52 5.14998 19.82 5.51998 19.77 5.92998C19.72 6.33998 19.35 6.63998 18.94 6.58998C17.32 6.39998 15.55 6.54998 14.21 6.97998C14.13 6.98998 14.05 7.00998 13.98 7.00998Z" fill="url(#paint1_linear_15_51)"/>
<path d="M13.98 9.67001C13.66 9.67001 13.37 9.47001 13.27 9.15001C13.14 8.76001 13.36 8.33001 13.75 8.21001C15.28 7.71001 17.28 7.55001 19.11 7.76001C19.52 7.81001 19.82 8.18001 19.77 8.59001C19.72 9.00001 19.35 9.30001 18.94 9.25001C17.32 9.06001 15.55 9.21001 14.21 9.64001C14.13 9.66001 14.05 9.67001 13.98 9.67001Z" fill="url(#paint2_linear_15_51)"/>
<path d="M13.98 12.33C13.66 12.33 13.37 12.13 13.27 11.81C13.14 11.42 13.36 10.99 13.75 10.87C15.28 10.37 17.28 10.21 19.11 10.42C19.52 10.47 19.82 10.84 19.77 11.25C19.72 11.66 19.35 11.95 18.94 11.91C17.32 11.72 15.55 11.87 14.21 12.3C14.13 12.32 14.05 12.33 13.98 12.33Z" fill="url(#paint3_linear_15_51)"/>
</g>
<defs>
<filter id="filter0_d_15_51" x="-3" y="0.5" width="29.99" height="24.645" filterUnits="userSpaceOnUse" color-interpolation-filters="sRGB">
<feFlood flood-opacity="0" result="BackgroundImageFix"/>
<feColorMatrix in="SourceAlpha" type="matrix" values="0 0 0 0 0 0 0 0 0 0 0 0 0 0 0 0 0 0 127 0" result="hardAlpha"/>
<feOffset dy="4"/>
<feGaussianBlur stdDeviation="2"/>
<feComposite in2="hardAlpha" operator="out"/>
<feColorMatrix type="matrix" values="0 0 0 0 0 0 0 0 0 0 0 0 0 0 0 0 0 0 0.25 0"/>
<feBlend mode="normal" in2="BackgroundImageFix" result="effect1_dropShadow_15_51"/>
<feBlend mode="normal" in="SourceGraphic" in2="effect1_dropShadow_15_51" result="shape"/>
</filter>
<linearGradient id="paint0_linear_15_51" x1="11.995" y1="0.5" x2="11.995" y2="17.145" gradientUnits="userSpaceOnUse">
<stop stop-color="#335A91"/>
<stop offset="1" stop-color="#335A91"/>
</linearGradient>
<linearGradient id="paint1_linear_15_51" x1="16.504" y1="5.00989" x2="16.504" y2="7.00998" gradientUnits="userSpaceOnUse">
<stop stop-color="#335A91"/>
<stop offset="1" stop-color="#335A91"/>
</linearGradient>
<linearGradient id="paint2_linear_15_51" x1="16.504" y1="7.66992" x2="16.504" y2="9.67001" gradientUnits="userSpaceOnUse">
<stop stop-color="#335A91"/>
<stop offset="1" stop-color="#335A91"/>
</linearGradient>
<linearGradient id="paint3_linear_15_51" x1="16.504" y1="10.33" x2="16.504" y2="12.33" gradientUnits="userSpaceOnUse">
<stop stop-color="#335A91"/>
<stop offset="1" stop-color="#335A91"/>
</linearGradient>
</defs>
</svg>
